<svg xmlns="http://www.w3.org/2000/svg" viewBox="0 0 900 420">
<defs><linearGradient id="g" x1="0" x2="1"><stop stop-color="#17191d"/><stop offset=".45" stop-color="#7d838b"/><stop offset="1" stop-color="#181a1e"/></linearGradient></defs>
<path d="M110 291c28-62 91-99 188-111l103-13c67-9 122 8 161 50l51 55c45 8 68 27 73 56H85c3-17 10-28 25-37z" fill="url(#g)" stroke="#e1e2e4" stroke-width="5"/>
<path d="M333 172l80-10c48-6 87 5 116 35l33 34H281c13-28 31-48 52-59z" fill="#0b0c0e" stroke="#70757c" stroke-width="4"/>
<circle cx="234" cy="326" r="43" fill="#050608" stroke="#b8bbc0" stroke-width="7"/><circle cx="234" cy="326" r="16" fill="#353940"/>
<circle cx="660" cy="326" r="43" fill="#050608" stroke="#b8bbc0" stroke-width="7"/><circle cx="660" cy="326" r="16" fill="#353940"/>
<path d="M115 290h73M706 290h66" stroke="#fff" stroke-width="7" stroke-linecap="round"/>
</svg>